# xmcd CD database file
#
# Track frame offsets:
#	200
#	19742
#	40890
#	61270
#	74612
#	97540
#	115725
#	144075
#	160007
#	172830
#	189850
#	205982
#
# Disc length: 3011 seconds
#
# Revision: 2
# Processed by: cddbd v1.4b41PL1 Copyright (c) Steve Scherf et al.
# Submitted via: Feurio! 1.50.2ß - http://www.feurio.com
#
DISCID=8e0bc10c
DTITLE=Blue Rider Trio - Preachin´ The Blues
DYEAR=1900
DGENRE=
TTITLE0=Preachin´ the Blues
TTITLE1=Stomp Down Rider
TTITLE2=Gallows Pole
TTITLE3=Old Blue Goose
TTITLE4=Early Morning Blues
TTITLE5=Cincinnati Rag
TTITLE6=Pay Day
TTITLE7=Walkin´ Blues
TTITLE8=Georgia Rag
TTITLE9=Freight Train Boogie
TTITLE10=Statesboro Blues
TTITLE11=She Don´t Do Me Wrong 
EXTD=
EXTT0=
EXTT1=
EXTT2=
EXTT3=
EXTT4=
EXTT5=
EXTT6=
EXTT7=
EXTT8=
EXTT9=
EXTT10=
EXTT11=
PLAYORDER=
